# xmcd
#
# Track frame offsets:
#	150
#	19650
#	37725
#	56400
#	75675
#	94650
#	113100
#	133125
#	151275
#	170775
#	188850
#	207525
#	226800
#	245775
#	264225
#	284250
#
# Disc length: 4032 seconds
#
# Revision: 1
# Processed by: cddbd v1.5.2PL0 Copyright (c) Steve Scherf et al.
# Submitted via: audiograbber 1.83.01
#
DISCID=d70fbe10
DTITLE=Various Artist - Girl Country 4 Karaoke
DYEAR=2006
DGENRE=Country
TTITLE0=Sara Evans - A Real Fine Place To Start
TTITLE1=Gretchen Wilson - All Jacked Up
TTITLE2=Lee Ann Womack - I May Hate Myself In The Morning
TTITLE3=LeAnn Rimes - Somrthing's Gotta Give
TTITLE4=Faith Hill - Mississippi Girl
TTITLE5=Miranda Lambert - New Strings
TTITLE6=Martina McBride - God's Will
TTITLE7=Jamie O'Neal - Somebody's Hero
TTITLE8=Sara Evans - A Real Fine Place To Start
TTITLE9=Gretchen Wilson - All Jacked Up
TTITLE10=Lee Ann Womack - I May Hate Myself In The Morning
TTITLE11=LeAnn Rimes - Somrthing's Gotta Give
TTITLE12=Faith Hill - Mississippi Girl
TTITLE13=Miranda Lambert - New Strings
TTITLE14=Martina McBride - God's Will
TTITLE15=Jamie O'Neal - Somebody's Hero
EXTD=
EXTT0=
EXTT1=
EXTT2=
EXTT3=
EXTT4=
EXTT5=
EXTT6=
EXTT7=
EXTT8=
EXTT9=
EXTT10=
EXTT11=
EXTT12=
EXTT13=
EXTT14=
EXTT15=
PLAYORDER=
